<svg width="39" height="26" viewBox="0 0 39 26" fill="none" xmlns="http://www.w3.org/2000/svg">
<path fill-rule="evenodd" clip-rule="evenodd" d="M37.3959 7.72119C38.7251 11.0772 39.0415 18.4752 34.6858 22.1895C29.7916 26.363 24.8973 26.0616 23.0077 25.9452C22.8486 25.9354 22.7108 25.9269 22.5961 25.9225C21.4144 25.8773 18.3473 25.5643 16.9615 25.4135V14.6102C17.8525 13.8512 18.4284 13.4587 19.4399 12.8762V14.1818H21.718V11.6429C22.3699 11.332 22.9364 11.1085 23.441 10.9095L23.441 10.9095L23.4411 10.9094C23.7666 10.781 24.0664 10.6627 24.3466 10.5378V18.7392C25.5683 18.7203 28.2306 18.3998 29.1059 17.2686C30.2 15.8546 30.8565 13.8183 30.6377 12.178C30.4626 10.8658 30.1021 9.54325 29.7774 8.76376C29.8668 8.73978 29.9543 8.71604 30.0411 8.69246C30.8664 8.46841 31.6341 8.25997 33.4889 8.02025C35.5388 7.75531 36.1694 7.72119 37.3959 7.72119ZM13.4056 17.1568V25.7107H6.0752V23.8866C6.32308 23.6274 6.62569 23.3009 6.95381 22.9469L6.95382 22.9469L6.95384 22.9469C7.69982 22.142 8.57763 21.1949 9.24386 20.5734C10.16 19.7188 11.9911 18.2096 13.4056 17.1568Z" fill="#F05C22"/>
<path fill-rule="evenodd" clip-rule="evenodd" d="M0 0.425147H19.3339V0.840265C22.0647 0.122305 28.4002 -0.622217 31.5679 0.840265C34.8887 2.37345 36.6988 5.77912 37.2085 7.10168C37.0838 7.10336 36.9525 7.105 36.8155 7.1067C35.4132 7.12421 33.42 7.14909 31.8717 7.30191C30.4211 7.44508 29.5682 7.62788 28.98 7.75396C28.7539 7.80242 28.5669 7.84249 28.4002 7.86872C28.0907 7.67978 27.2314 7.30191 26.2701 7.30191H24.304V8.66225C23.6896 8.87477 22.5923 9.25272 21.7176 9.54982V8.19391H19.4395V10.3722C18.5743 10.726 17.5289 11.1771 16.9309 11.4396V7.30191H13.3808V13.5368C12.6162 13.8769 10.9536 14.8405 9.99467 15.5207C9.40043 15.9422 8.37609 16.8095 7.46156 17.5838C6.91889 18.0433 6.41489 18.47 6.06234 18.7515V7.30191H0V0.425147Z" fill="#041F2E"/>
</svg>
