<svg width="333" height="124" viewBox="0 0 333 124" fill="none" xmlns="http://www.w3.org/2000/svg">
<path d="M77.0591 62.9014C68.958 62.9014 62.0138 57.0013 62.0138 47.6242C62.0138 38.5632 68.958 32.4526 77.0591 32.4526C85.2653 32.4526 91.7884 38.2475 91.7884 47.6242C91.7884 56.6847 85.2653 62.9014 77.0591 62.9014ZM78.2156 20.4406C72.7462 20.4406 64.2243 23.3916 61.1734 28.7643V-4.64319e-05H48.3382V26.0398C53.4789 31.0287 57.1169 39.6681 55.5404 53.7832L48.3382 53.7294V61.5708L53.3576 66.5597C51.5386 68.5066 50.2047 69.7234 48.3382 70.9402V73.6484H60.3302L61.1734 66.4832C65.1702 72.7007 71.5874 74.8066 77.9007 74.8066C93.1555 74.8066 104.622 64.6931 104.622 47.6242C104.622 29.7128 93.3653 20.4406 78.2156 20.4406Z" fill="#041F2E"/>
<path d="M28.468 31.5175C35.8311 31.5175 41.093 34.8888 41.9338 41.6317H13.9493C15.8438 34.8888 21.5261 31.5175 28.468 31.5175ZM43.0922 58.4894C40.1463 61.5453 33.9397 63.3362 29.2048 63.3362C20.1567 63.3362 14.5826 58.6995 13.7395 52.2731H54.2439C56.2431 30.8863 45.4059 20.1378 28.0468 20.1378C11.214 20.1378 0.485062 31.5175 0.485062 47.321C0.485062 63.9689 11.1097 75.0312 28.9935 75.0312C36.884 75.0312 45.8263 72.2927 51.2957 66.6026L43.0922 58.4894Z" fill="#041F2E"/>
<path d="M292.916 46.3601C292.916 55.4199 299.017 60.7937 306.488 60.7937C313.851 60.7937 319.954 55.3166 319.954 46.3601C319.954 37.4036 313.851 31.714 306.488 31.714C299.017 31.714 292.916 37.2988 292.916 46.3601ZM323.532 16.4371L333 23.6019L327.212 30.9768C331.211 35.5079 332.683 40.6693 332.683 46.3601C332.683 52.7861 330.264 61.8482 321.742 65.7462C330.367 70.0656 332.473 76.2823 332.473 82.92C332.473 97.2495 321.532 106.1 306.488 106.1C291.444 106.1 280.186 96.9334 280.186 82.92H292.916C292.916 89.663 299.124 94.0876 306.488 94.0876C313.851 94.0876 319.638 90.084 319.638 82.92C319.638 75.7537 312.906 72.488 306.488 72.488C290.287 72.488 280.186 62.5846 280.186 46.3601C280.186 30.1348 291.97 20.0197 306.488 20.0197C310.591 20.0197 314.798 20.5456 318.376 22.97L323.532 16.4371Z" fill="#F05C22"/>
<path d="M109.778 47.7291C109.778 55.6314 114.512 63.0071 123.876 63.0071C133.238 63.0071 137.973 55.6314 137.973 47.7291C137.973 39.9324 132.502 32.3466 123.876 32.3466C114.617 32.3466 109.778 39.9324 109.778 47.7291ZM150.911 47.7291C150.911 62.6914 140.707 74.8066 123.876 74.8066C107.042 74.8066 96.9427 62.6914 96.9427 47.7291C96.9427 32.8744 107.254 20.6516 123.769 20.6516C140.287 20.6516 150.911 32.8744 150.911 47.7291" fill="#041F2E"/>
<path d="M155.436 47.7291C155.436 55.6314 160.169 63.0071 169.533 63.0071C178.896 63.0071 183.632 55.6314 183.632 47.7291C183.632 39.9324 178.161 32.3466 169.533 32.3466C160.277 32.3466 155.436 39.9324 155.436 47.7291ZM196.57 47.7291C196.57 62.6914 186.365 74.8066 169.533 74.8066C152.703 74.8066 142.602 62.6914 142.602 47.7291C142.602 32.8744 152.913 20.6516 169.43 20.6516C185.947 20.6516 196.57 32.8744 196.57 47.7291" fill="#041F2E"/>
<path d="M234.34 65.2793L216.98 46.1485L234.34 26.6872V65.2793ZM264.635 20.863C258.114 20.863 252.854 23.4952 247.593 28.6589L247.175 25.1344V21.9269H222.58L205.303 42.5667V0.640311H192.466V73.6487H205.303V50.1525L225.606 73.6487H234.34H235.284H241.07H247.175H248.014V47.097C248.014 39.1946 253.378 32.5569 261.27 32.5569C269.475 32.5569 273.788 38.5635 273.788 46.4651V73.6487H286.623V46.3602C286.623 30.0281 276.842 20.863 264.635 20.863" fill="#F05C22"/>
<path d="M247.481 7.91032C247.481 17.9205 232.331 17.9205 232.331 7.91032C232.331 -2.09675 247.481 -2.09675 247.481 7.91032Z" fill="#F05C22"/>
</svg>
