<svg width="60" height="28" viewBox="0 0 60 28" fill="none" xmlns="http://www.w3.org/2000/svg">
<path d="M34.4972 5.70557H25.2656V22.2944H34.4972V5.70557Z" fill="#FF5F00"/>
<path d="M25.853 14C25.8516 12.4023 26.2136 10.8253 26.9118 9.38829C27.6099 7.95127 28.6258 6.69191 29.8827 5.70555C28.3263 4.48222 26.4571 3.72146 24.4888 3.51021C22.5204 3.29895 20.5324 3.64572 18.7518 4.51089C16.9712 5.37607 15.47 6.72474 14.4197 8.40274C13.3695 10.0807 12.8125 12.0204 12.8125 14C12.8125 15.9795 13.3695 17.9192 14.4197 19.5972C15.47 21.2752 16.9712 22.6238 18.7518 23.489C20.5324 24.3542 22.5204 24.701 24.4888 24.4897C26.4571 24.2784 28.3263 23.5177 29.8827 22.2944C28.6258 21.308 27.6099 20.0486 26.9118 18.6116C26.2137 17.1746 25.8516 15.5976 25.853 14Z" fill="#EB001B"/>
<path d="M46.9525 13.9999C46.9525 15.9795 46.3956 17.9191 45.3454 19.5971C44.2952 21.2751 42.794 22.6238 41.0135 23.489C39.233 24.3542 37.2449 24.7009 35.2766 24.4897C33.3083 24.2784 31.4392 23.5177 29.8828 22.2944C31.1385 21.307 32.1537 20.0474 32.8517 18.6106C33.5497 17.1738 33.9124 15.5973 33.9124 13.9999C33.9124 12.4026 33.5497 10.8261 32.8517 9.38926C32.1537 7.95247 31.1385 6.6929 29.8828 5.70554C31.4392 4.48222 33.3083 3.72146 35.2766 3.5102C37.2449 3.29895 39.233 3.64573 41.0135 4.51092C42.794 5.3761 44.2952 6.72477 45.3454 8.40278C46.3956 10.0808 46.9525 12.0204 46.9525 13.9999Z" fill="#F79E1B"/>
<path d="M45.9462 20.5374V20.1978H46.0832V20.1286H45.7344V20.1978H45.8714V20.5374H45.9462ZM46.6233 20.5374V20.1279H46.5164L46.3935 20.4096L46.2705 20.1279H46.1635V20.5374H46.239V20.2285L46.3543 20.4948H46.4326L46.5479 20.2279V20.5374H46.6233Z" fill="#F79E1B"/>
</svg>
