<svg width="242" height="242" viewBox="0 0 242 242" fill="none" xmlns="http://www.w3.org/2000/svg">
<path d="M55.7062 216.762C19.6422 199.132 19.6422 170.578 55.7062 152.972C91.7701 135.366 150.237 135.354 186.296 152.972C222.355 170.59 222.36 199.156 186.296 216.774C150.232 234.393 91.7701 234.38 55.7062 216.762Z" fill="#F1F5FA"/>
<path d="M80.8957 168.325L73.4421 172.633C73.1756 172.806 72.9537 173.039 72.7948 173.314C72.6358 173.589 72.5441 173.898 72.5273 174.215V176.069C72.5273 176.65 72.9339 176.887 73.4421 176.597L80.8957 172.289V168.325Z" fill="#E0E0E0"/>
<path d="M68.0891 174.791L76.5591 169.903C76.8257 169.729 77.0475 169.494 77.2065 169.218C77.3654 168.942 77.457 168.633 77.4738 168.315V166.466C77.4738 165.88 77.0673 165.643 76.5591 165.939L68.0891 170.827C67.8233 171.001 67.6021 171.234 67.4433 171.509C67.2844 171.784 67.1923 172.093 67.1743 172.41V174.278C67.1743 174.844 67.5857 175.081 68.0891 174.791Z" fill="#E0E0E0"/>
<path d="M88.4458 130.988L149.546 166.282V18.6035L88.4458 53.9016V130.988Z" fill="#212C3D"/>
<path opacity="0.4" d="M88.4458 130.988L149.546 166.282V18.6035L88.4458 53.9016V130.988Z" fill="black"/>
<path d="M149.546 166.281L88.4458 130.987V201.545L149.546 166.281Z" fill="#E0E0E0"/>
<path d="M149.546 166.282L152.402 167.922V16.9531L149.546 18.6036V166.282Z" fill="#212C3D"/>
<path opacity="0.4" d="M149.546 166.282L152.402 167.922V16.9531L149.546 18.6036V166.282Z" fill="white"/>
<path opacity="0.1" d="M149.546 166.282L152.402 167.922V16.9531L149.546 18.6036V166.282Z" fill="black"/>
<path d="M152.402 167.924L157.315 165.087V6.59668L83.708 49.0919L83.7129 207.583L88.4464 204.848V53.9028L152.402 16.9543V167.924Z" fill="#212C3D"/>
<path opacity="0.7" d="M152.402 167.924L157.315 165.087V6.59668L83.708 49.0919L83.7129 207.583L88.4464 204.848V53.9028L152.402 16.9543V167.924Z" fill="white"/>
<path d="M157.314 6.59592L83.7075 49.0911L80.8955 47.4552L154.502 4.96484L157.314 6.59592Z" fill="#212C3D"/>
<path opacity="0.85" d="M157.314 6.59592L83.7075 49.0911L80.8955 47.4552L154.502 4.96484L157.314 6.59592Z" fill="white"/>
<path d="M83.7076 207.582V49.091L80.8956 47.4551L80.8521 205.931L83.7076 207.582Z" fill="#212C3D"/>
<path opacity="0.6" d="M80.8956 47.4551L80.8521 205.931L83.7076 207.582V49.091" fill="white"/>
<path d="M88.4458 202.407L156.985 191.769V43.2393L88.4458 53.9018V202.407Z" fill="#455A64"/>
<path d="M154.899 42.0342L156.985 43.2393L88.4458 53.9019L92.071 51.8061L154.899 42.0342Z" fill="#37474F"/>
<path d="M96.4897 130.8L144.454 123.347V183.716L96.4897 191.165V130.8Z" fill="#455A64"/>
<path opacity="0.1" d="M96.4897 130.8L144.454 123.347V183.716L96.4897 191.165V130.8Z" fill="black"/>
<path d="M100.091 133.882L140.858 127.542V180.627L100.091 186.968V133.882Z" fill="#455A64"/>
<path d="M96.4897 191.164L100.091 186.967L140.858 180.627L144.454 183.715L96.4897 191.164Z" fill="#263238"/>
<path d="M96.4897 130.8L100.091 133.883V186.968L96.4897 191.164V130.8Z" fill="#37474F"/>
<path d="M140.858 127.543L144.455 123.347V183.716L140.858 180.628V127.543Z" fill="#37474F"/>
<path d="M123.739 57.6961L144.454 54.4727V114.842L123.744 118.061L123.739 57.6961Z" fill="#455A64"/>
<path opacity="0.1" d="M123.739 57.6961L144.454 54.4727V114.842L123.744 118.061L123.739 57.6961Z" fill="black"/>
<path d="M127.34 60.7802L140.858 58.6748V111.76L127.34 113.865V60.7802Z" fill="#455A64"/>
<path d="M123.744 118.06L127.34 113.864L140.858 111.759L144.454 114.842L123.744 118.06Z" fill="#263238"/>
<path d="M123.739 57.6963L127.34 60.7794V113.864L123.744 118.061L123.739 57.6963Z" fill="#37474F"/>
<path d="M140.858 58.6738L144.455 54.4727V114.842L140.858 111.759V58.6738Z" fill="#37474F"/>
<path d="M96.5239 61.9119L117.239 58.6885V119.058L96.5239 122.276V61.9119Z" fill="#455A64"/>
<path opacity="0.1" d="M96.5239 61.9119L117.239 58.6885V119.058L96.5239 122.276V61.9119Z" fill="black"/>
<path d="M100.12 64.995L113.638 62.8848L113.643 115.975L100.12 118.08V64.995Z" fill="#455A64"/>
<path d="M96.5239 122.276L100.12 118.08L113.643 115.975L117.239 119.058L96.5239 122.276Z" fill="#263238"/>
<path d="M96.5239 61.9111L100.12 64.9942V118.079L96.5239 122.276V61.9111Z" fill="#37474F"/>
<path d="M113.638 62.8848L117.239 58.6885V119.058L113.643 115.975L113.638 62.8848Z" fill="#37474F"/>
<path d="M147.75 112.355L148.684 113.299V128.807L147.75 127.868V112.355Z" fill="#E0E0E0"/>
<path d="M148.684 113.299L153.723 112.544V128.056L148.684 128.806V113.299Z" fill="#FAFAFA"/>
<path opacity="0.05" d="M153.723 116.812L148.684 117.548V120.583L153.723 119.852V116.812Z" fill="black"/>
<path d="M153.723 112.543L152.788 111.604L147.75 112.355L148.684 113.298L153.723 112.543Z" fill="#EBEBEB"/>
<path d="M150.615 116.237L152.928 118.56L153.853 117.35L151.539 115.032C151.481 114.971 151.408 114.926 151.328 114.899C151.248 114.872 151.163 114.864 151.08 114.877C150.889 114.922 150.72 115.031 150.601 115.186C150.482 115.342 150.42 115.533 150.426 115.729C150.421 115.917 150.489 116.099 150.615 116.237Z" fill="#E0E0E0"/>
<path opacity="0.1" d="M148.684 117.577L152.358 117.984V116.88L153.253 116.749L152.411 115.902L148.684 116.469V117.577Z" fill="black"/>
<path d="M141.12 118.907V121.327L154.246 119.362V116.942L141.12 118.907Z" fill="#FAFAFA"/>
<path d="M141.12 118.909L140.282 118.062V120.486L141.12 121.329V118.909Z" fill="#E0E0E0"/>
<path d="M154.246 116.943L153.403 116.096L140.282 118.061L141.12 118.908L154.246 116.943Z" fill="#EBEBEB"/>
<path d="M150.354 122.974C150.348 122.72 150.43 122.471 150.584 122.269C150.739 122.068 150.959 121.925 151.206 121.866C151.321 121.855 151.436 121.87 151.545 121.909C151.653 121.949 151.751 122.012 151.832 122.094C151.913 122.176 151.975 122.274 152.013 122.383C152.051 122.492 152.065 122.608 152.053 122.722C152.052 122.913 152.005 123.101 151.916 123.269C151.826 123.438 151.697 123.582 151.54 123.69V125.273C151.543 125.359 151.516 125.443 151.464 125.512C151.412 125.581 151.338 125.63 151.254 125.651H151.153C151.114 125.654 151.075 125.65 151.038 125.636C151.001 125.623 150.968 125.602 150.94 125.574C150.913 125.546 150.892 125.512 150.88 125.475C150.867 125.438 150.863 125.399 150.867 125.36V123.777C150.71 123.712 150.576 123.6 150.484 123.456C150.393 123.313 150.347 123.144 150.354 122.974Z" fill="#455A64"/>
<path d="M81.0696 216.298C85.1884 212.049 87.6084 194.741 83.5912 191.367H63.1374C59.1202 194.755 61.5354 212.039 65.6542 216.293L65.7704 216.414L65.9107 216.555C66.0269 216.666 66.1527 216.777 66.2834 216.889C66.3177 216.912 66.3501 216.938 66.3802 216.966C66.4818 217.043 66.5835 217.126 66.6948 217.203C66.8652 217.328 67.043 217.443 67.2272 217.547C70.6152 219.526 76.1134 219.526 79.5014 217.547C79.6884 217.443 79.8679 217.327 80.0387 217.198C80.1403 217.131 80.2323 217.053 80.3291 216.98L80.4501 216.884C80.5759 216.777 80.6969 216.671 80.8082 216.559L80.9728 216.4L81.0696 216.298Z" fill="#455A64"/>
<path d="M64.9139 190.007C60.2481 192.732 60.2481 197.15 64.9139 199.875C69.5796 202.6 77.1446 202.6 81.8152 199.875C86.4858 197.15 86.4809 192.732 81.8152 190.007C77.1494 187.282 69.5796 187.282 64.9139 190.007Z" fill="#455A64"/>
<g opacity="0.1">
<path d="M64.9139 190.007C60.2481 192.732 60.2481 197.15 64.9139 199.875C69.5796 202.6 77.1446 202.6 81.8152 199.875C86.4858 197.15 86.4809 192.732 81.8152 190.007C77.1494 187.282 69.5796 187.282 64.9139 190.007Z" fill="white"/>
</g>
<path d="M67.1594 191.318C63.7327 193.317 63.7327 196.565 67.1594 198.578C70.5861 200.592 76.1424 200.582 79.5692 198.578C82.9959 196.574 82.9959 193.332 79.5692 191.318C76.1424 189.305 70.5958 189.319 67.1594 191.318Z" fill="#263238"/>
<path d="M79.5689 194.76C76.1421 192.756 70.5858 192.756 67.1591 194.76C66.3257 195.211 65.6198 195.865 65.1069 196.662C65.6227 197.456 66.3279 198.11 67.1591 198.564C70.5858 200.568 76.1421 200.568 79.5689 198.564C80.4 198.11 81.1053 197.456 81.621 196.662C81.1081 195.865 80.4022 195.211 79.5689 194.76Z" fill="#F5F5F5"/>
<path d="M62.0243 157.792L70.2039 163.387L62.4599 160.459C62.527 162.529 63.0491 164.558 63.9893 166.403C63.9893 166.403 69.0955 168.881 71.8737 171.494L65.0783 169.355C64.8652 170.541 64.9382 171.76 65.2913 172.912C65.3349 173.067 65.3833 173.232 65.4365 173.396C65.7947 174.485 66.3077 176.542 67.1789 178.982C67.9177 181.116 68.8593 183.174 69.9909 185.129C70.5508 186.091 71.175 187.014 71.8592 187.892C71.8979 187.95 71.9415 188.003 71.985 188.057C73.2467 187.215 74.5599 186.39 75.9248 185.583C76.7137 183.58 77.5801 178.701 77.7349 174.742C78.3399 159.593 66.3609 151.781 57.0439 149.535C57.0439 149.535 60.4319 153.252 62.0243 157.792Z" fill="#212C3D"/>
<path opacity="0.3" d="M62.0243 157.792L70.2039 163.387L62.4599 160.459C62.527 162.529 63.0491 164.558 63.9893 166.403C63.9893 166.403 69.0955 168.881 71.8737 171.494L65.0783 169.355C64.8652 170.541 64.9382 171.76 65.2913 172.912C65.3349 173.067 65.3833 173.232 65.4365 173.396C65.7947 174.485 66.3077 176.542 67.1789 178.982C67.9177 181.116 68.8593 183.174 69.9909 185.129C70.5508 186.091 71.175 187.014 71.8592 187.892C71.8979 187.95 71.9415 188.003 71.985 188.057C73.2467 187.215 74.5599 186.39 75.9248 185.583C76.7137 183.58 77.5801 178.701 77.7349 174.742C78.3399 159.593 66.3609 151.781 57.0439 149.535C57.0439 149.535 60.4319 153.252 62.0243 157.792Z" fill="black"/>
<path d="M68.5488 157.967C69.38 158.71 70.0961 159.573 70.6736 160.527C71.2459 161.484 71.7458 162.482 72.1691 163.513C73.007 165.577 73.6157 167.726 73.9841 169.922C74.7886 174.305 74.5414 178.817 73.263 183.086C73.2463 183.142 73.2521 183.202 73.2792 183.254C73.3064 183.306 73.3527 183.344 73.4082 183.362C73.4634 183.379 73.5229 183.373 73.5737 183.346C73.6245 183.318 73.6625 183.272 73.6792 183.217C74.9042 178.876 75.0817 174.306 74.1971 169.883C73.7872 167.681 73.138 165.531 72.2611 163.47C71.8185 162.443 71.3008 161.449 70.7123 160.498C70.1182 159.554 69.3894 158.701 68.5488 157.967Z" fill="#FAFAFA"/>
<path d="M97.1436 165.532C96.9597 165.769 94.0605 168.296 89.6174 175.851L80.6053 178.15L87.9331 178.808L84.5451 184.694L76.8882 186.572L82.9624 187.346C82.9624 187.346 81.5104 193.319 77.2802 195.947C74.9377 197.399 73.7809 197.65 73.0355 196.997C72.5128 196.537 72.2902 193.711 71.7723 191.189C71.2544 188.667 71.0608 184.568 73.2533 179.52C73.8516 178.167 74.6404 176.907 75.5959 175.779C81.0796 169.157 91.7857 165.663 97.1436 165.532Z" fill="#212C3D"/>
<path opacity="0.15" d="M97.1436 165.532C96.9597 165.769 94.0605 168.296 89.6174 175.851L80.6053 178.15L87.9331 178.808L84.5451 184.694L76.8882 186.572L82.9624 187.346C82.9624 187.346 81.5104 193.319 77.2802 195.947C74.9377 197.399 73.7809 197.65 73.0355 196.997C72.5128 196.537 72.2902 193.711 71.7723 191.189C71.2544 188.667 71.0608 184.568 73.2533 179.52C73.8516 178.167 74.6404 176.907 75.5959 175.779C81.0796 169.157 91.7857 165.663 97.1436 165.532Z" fill="black"/>
<path opacity="0.1" d="M74.9519 182.069C74.1231 184.178 73.6 186.395 73.3982 188.652C73.2577 191.507 73.2917 194.368 73.4999 197.219C73.3366 197.167 73.1852 197.083 73.0546 196.972C72.5319 196.512 72.3092 193.685 71.7913 191.164C71.2735 188.642 71.0799 184.543 73.2724 179.495C73.8706 178.142 74.6595 176.882 75.6149 175.753C81.0987 169.147 91.8047 165.652 97.1626 165.521C88.9927 167.182 80.3678 172.994 76.249 179.524C75.7457 180.334 75.3118 181.186 74.9519 182.069Z" fill="black"/>
<path d="M88.9877 168.426C84.985 170.362 81.2437 172.971 78.3397 176.412C76.8661 178.118 75.6735 180.047 74.8065 182.128C73.9648 184.211 73.4741 186.419 73.3545 188.662C73.3623 188.665 73.3709 188.665 73.3787 188.662C73.7127 186.47 74.3242 184.33 75.1985 182.292C76.0681 180.261 77.2077 178.356 78.5865 176.63C79.9946 174.913 81.5996 173.368 83.3685 172.027C85.1439 170.674 87.0375 169.483 89.0264 168.469V168.431L88.9877 168.426Z" fill="#FAFAFA"/>
<path d="M49.4111 171.252C50.072 171.213 50.7347 171.213 51.3955 171.252C54.0013 171.411 56.5777 171.889 59.0669 172.675C59.9914 172.966 60.9207 173.295 61.8354 173.672C62.2952 173.861 62.7502 174.06 63.1955 174.272C65.4229 175.282 67.466 176.656 69.2406 178.338C70.0685 179.143 70.7921 180.049 71.3944 181.034C71.4719 181.16 71.5541 181.286 71.6267 181.416C71.8107 181.755 71.9849 182.084 72.1446 182.413C73.6552 185.249 74.4213 188.421 74.371 191.634C74.4146 193.899 73.7854 196.522 73.374 196.958C73.3168 197.017 73.2535 197.071 73.1852 197.117C72.5609 197.563 71.5251 197.379 69.5552 196.415C65.6009 194.479 63.7956 189.155 63.7956 189.155L69.0712 187.955L62.1549 186.987L59.1347 182.805L64.2022 181.537L57.1939 180.86C54.7974 177.508 52.2017 174.303 49.4208 171.262L49.4111 171.252Z" fill="#212C3D"/>
<path opacity="0.05" d="M51.3956 171.233C54.0013 171.392 56.5777 171.87 59.067 172.656C59.9914 172.946 60.9207 173.276 61.8355 173.653C62.2953 173.842 62.7502 174.04 63.1955 174.253C65.4229 175.262 67.4661 176.636 69.2407 178.319C70.0686 179.124 70.7921 180.03 71.3945 181.015C71.4719 181.141 71.5542 181.266 71.6268 181.397C71.8107 181.736 71.9849 182.065 72.1447 182.394C73.6553 185.23 74.4213 188.402 74.3711 191.614C74.4146 193.879 73.7854 196.503 73.374 196.938C73.3169 196.998 73.2536 197.052 73.1853 197.098C73.0581 197.182 72.9172 197.242 72.769 197.277C73.0497 193.749 70.833 184.969 68.0258 181.46C65.1218 177.815 58.3458 172.661 49.416 171.252C50.075 171.209 50.7359 171.202 51.3956 171.233Z" fill="black"/>
</svg>
