<svg width="60" height="28" viewBox="0 0 60 28" fill="none" xmlns="http://www.w3.org/2000/svg">
<path d="M35.7048 8C32.7936 8 30.1921 9.47662 30.1921 12.2048C30.1921 15.3335 34.806 15.5496 34.806 17.1213C34.806 17.7831 34.031 18.3755 32.7073 18.3755C30.8288 18.3755 29.4247 17.5478 29.4247 17.5478L28.8239 20.3008C28.8239 20.3008 30.4414 21 32.5888 21C35.7716 21 38.2761 19.4509 38.2761 16.6761C38.2761 13.3701 33.6429 13.1604 33.6429 11.7015C33.6429 11.1831 34.2792 10.6151 35.5991 10.6151C37.0883 10.6151 38.3033 11.2171 38.3033 11.2171L38.8913 8.55813C38.8913 8.55813 37.5692 8 35.7048 8ZM9.07049 8.20068L9 8.60203C9 8.60203 10.2247 8.82137 11.3278 9.25892C12.7481 9.76066 12.8493 10.0528 13.0885 10.96L15.695 20.7931H19.1891L24.5721 8.20068H21.086L17.6271 16.7623L16.2157 9.50507C16.0863 8.67448 15.4306 8.20068 14.628 8.20068H9.07049ZM25.9739 8.20068L23.2391 20.7931H26.5634L29.2885 8.20068H25.9739ZM44.5145 8.20068C43.7129 8.20068 43.2882 8.62066 42.9766 9.35456L38.1063 20.7931H41.5924L42.2668 18.8866H46.5139L46.924 20.7931H50L47.3165 8.20068H44.5145ZM44.9679 11.6028L46.0013 16.328H43.2329L44.9679 11.6028Z" fill="#FFFFFF"/>
</svg>
